<?xml version="1.0" standalone="no"?>
<!DOCTYPE svg PUBLIC "-//W3C//DTD SVG 20010904//EN"
 "http://www.w3.org/TR/2001/REC-SVG-20010904/DTD/svg10.dtd">
<svg version="1.0" xmlns="http://www.w3.org/2000/svg"
 width="500.000000pt" height="500.000000pt" viewBox="0 0 500.000000 500.000000"
 preserveAspectRatio="xMidYMid meet">

<g transform="translate(0.000000,500.000000) scale(0.100000,-0.100000)"
fill="#000000" stroke="none">
<path d="M730 3698 c0 -7 -9 -206 -20 -443 -11 -236 -20 -458 -20 -492 l0 -63
59 0 59 0 6 83 c3 45 10 197 16 337 6 140 13 301 16 358 l6 102 62 -2 61 -2
-52 -3 -52 -4 -5 -62 c-3 -34 -10 -181 -16 -327 -5 -146 -13 -313 -16 -372
l-7 -108 65 0 64 0 16 365 c8 201 17 368 21 371 10 10 333 -16 448 -37 337
-60 526 -173 647 -386 35 -63 77 -189 88 -265 l6 -48 64 0 c35 0 64 2 64 4 0
2 -7 41 -16 87 -39 205 -116 353 -250 479 -74 70 -103 90 -190 133 -134 67
-326 117 -544 143 l-115 13 95 -4 c175 -9 371 -51 514 -111 222 -93 365 -236
449 -449 35 -87 67 -218 67 -270 0 -24 2 -25 65 -25 75 0 72 -7 50 111 -71
380 -268 625 -612 759 -215 84 -427 115 -935 135 -128 6 -158 4 -158 -7z m413
-135 c-29 -2 -78 -2 -110 0 -32 2 -8 3 52 3 61 0 87 -1 58 -3z"/>
<path d="M3395 3700 c-257 -27 -494 -161 -616 -348 -59 -90 -86 -161 -107
-275 -19 -104 -8 -223 28 -319 l21 -58 75 0 75 0 -25 43 c-60 101 -72 279 -28
409 62 186 239 339 462 400 73 20 109 23 260 23 202 0 246 -8 375 -70 147 -70
263 -193 313 -329 30 -80 34 -106 19 -106 -7 0 -19 21 -26 49 -40 158 -152
295 -299 369 -118 59 -207 77 -382 77 -177 0 -253 -17 -398 -87 -193 -92 -307
-237 -334 -426 -15 -99 -1 -198 37 -270 44 -84 40 -82 156 -82 l103 0 -47 30
c-94 59 -133 146 -125 279 11 195 163 347 409 412 66 17 110 22 204 21 195 -2
320 -43 428 -142 70 -64 112 -145 136 -266 l18 -89 42 0 c22 1 82 2 131 3 l90
2 0 53 c0 86 -27 187 -76 285 -37 76 -61 109 -127 175 -194 194 -456 272 -792
237z"/>
<path d="M3060 2597 c-28 -14 -39 -59 -20 -81 6 -8 31 -19 56 -25 48 -12 64
-32 44 -56 -16 -20 -59 -19 -81 1 -28 25 -47 12 -21 -14 25 -25 87 -30 116 -9
24 17 24 67 1 84 -10 7 -33 16 -51 19 -65 12 -67 64 -2 64 16 0 31 -6 34 -15
8 -19 34 -20 34 0 0 15 -48 45 -72 45 -7 0 -24 -6 -38 -13z"/>
<path d="M1170 2499 l0 -102 52 5 c68 7 98 39 98 104 0 64 -31 94 -100 94
l-50 0 0 -101z m98 65 c17 -12 22 -25 22 -59 0 -47 -16 -71 -55 -81 -38 -10
-45 3 -45 82 l0 74 28 0 c15 0 38 -7 50 -16z"/>
<path d="M1400 2500 c0 -82 3 -100 15 -100 11 0 15 12 15 45 l0 45 55 0 55 0
0 -45 c0 -33 4 -45 15 -45 12 0 15 18 15 100 0 82 -3 100 -15 100 -11 0 -15
-11 -15 -40 l0 -40 -55 0 -55 0 0 40 c0 29 -4 40 -15 40 -12 0 -15 -18 -15
-100z"/>
<path d="M1692 2518 c-17 -46 -33 -91 -37 -100 -5 -12 -2 -18 7 -18 7 0 19 14
25 30 10 26 16 30 51 30 35 0 41 -3 51 -30 5 -16 16 -30 24 -30 11 0 6 24 -22
100 -46 128 -58 130 -99 18z m57 30 c25 -67 25 -68 -12 -68 l-35 0 17 45 c9
25 17 45 19 45 1 0 6 -10 11 -22z"/>
<path d="M1910 2500 c0 -60 4 -100 10 -100 6 0 10 33 10 78 0 87 7 84 41 -15
11 -36 27 -63 34 -63 7 0 23 27 34 63 34 99 41 102 41 15 0 -45 4 -78 10 -78
6 0 10 40 10 100 0 89 -2 100 -18 100 -13 0 -25 -21 -46 -80 -15 -44 -29 -80
-31 -80 -2 0 -15 36 -31 80 -21 61 -32 80 -46 80 -16 0 -18 -10 -18 -100z"/>
<path d="M2222 2507 c-36 -102 -37 -107 -21 -107 5 0 15 14 20 30 10 27 16 30
51 30 35 0 41 -4 51 -30 6 -16 17 -30 24 -30 7 0 13 2 13 4 0 4 -43 121 -62
169 -20 51 -41 33 -76 -66z m71 18 l16 -45 -35 0 c-32 0 -35 2 -28 23 13 41
23 67 28 67 2 0 11 -20 19 -45z"/>
<path d="M2440 2500 c0 -82 3 -100 15 -100 10 0 15 10 15 33 0 21 8 41 19 51
19 18 21 17 51 -33 18 -28 38 -51 47 -51 14 0 3 25 -44 95 -18 27 -17 30 18
70 22 24 26 35 16 35 -8 0 -36 -23 -61 -51 l-46 -51 0 51 c0 39 -4 51 -15 51
-12 0 -15 -18 -15 -100z"/>
<path d="M2702 2507 c-36 -102 -37 -107 -21 -107 5 0 15 14 20 30 10 27 16 30
51 30 35 0 41 -4 51 -30 6 -16 17 -30 24 -30 7 0 13 2 13 4 0 4 -43 121 -62
169 -20 51 -41 33 -76 -66z m71 18 l16 -45 -35 0 c-32 0 -35 2 -28 23 13 41
23 67 28 67 2 0 11 -20 19 -45z"/>
<path d="M3311 2578 c-22 -59 -61 -170 -61 -174 0 -2 6 -4 13 -4 7 0 18 14 24
30 10 26 16 30 50 30 34 0 40 -4 50 -30 6 -16 16 -30 22 -30 16 0 15 5 -23
105 -34 94 -58 117 -75 73z m58 -90 c1 -5 -14 -8 -33 -8 l-35 0 16 47 16 48
18 -40 c10 -22 18 -43 18 -47z"/>
<path d="M3510 2500 l0 -100 60 0 c71 0 81 18 13 22 l-48 3 -3 88 c-4 121 -22
111 -22 -13z"/>
<path d="M3710 2500 l0 -100 65 0 c37 0 65 4 65 10 0 6 -22 10 -50 10 l-50 0
0 35 c0 35 0 35 45 35 25 0 45 5 45 10 0 6 -20 10 -45 10 -45 0 -45 0 -45 35
l0 35 50 0 c28 0 50 5 50 10 0 6 -28 10 -65 10 l-65 0 0 -100z"/>
<path d="M666 2218 c-10 -146 -48 -1040 -44 -1043 11 -9 536 -27 648 -21 603
29 958 265 1109 738 29 92 64 266 74 371 l5 47 -63 0 -63 0 -7 -62 c-28 -258
-102 -464 -220 -618 -125 -163 -315 -267 -587 -322 -105 -21 -137 -23 -435
-22 -178 0 -325 3 -328 6 -3 3 4 209 15 457 11 249 20 477 20 507 l0 54 -59 0
-59 0 -6 -92z"/>
<path d="M810 2278 c0 -18 -9 -244 -21 -501 -11 -258 -18 -471 -15 -475 4 -3
142 -6 309 -6 339 -1 416 8 602 68 370 120 574 405 623 869 l8 77 -63 0 c-44
0 -63 -4 -63 -12 0 -7 -7 -58 -15 -113 -70 -464 -299 -689 -769 -754 -43 -6
-174 -11 -292 -11 -191 0 -214 2 -214 16 0 37 30 706 35 787 l6 87 -66 0 -65
0 0 -32z"/>
<path d="M3695 2269 c99 -21 207 -48 240 -60 127 -46 212 -125 257 -237 17
-46 22 -78 22 -162 1 -129 -17 -174 -109 -266 -108 -109 -276 -170 -500 -181
-350 -16 -601 131 -690 405 l-17 52 -66 0 c-37 0 -98 -3 -135 -7 l-69 -6 7
-36 c12 -66 62 -200 96 -257 46 -76 139 -176 213 -228 174 -124 367 -179 626
-179 213 0 377 35 535 113 256 128 399 362 381 625 -11 164 -69 318 -159 419
l-42 47 -104 -3 -104 -3 51 -33 c216 -139 298 -473 174 -706 -34 -65 -142
-173 -213 -213 -64 -37 -158 -75 -172 -70 -6 2 12 11 39 21 143 53 285 172
342 288 101 205 42 480 -135 630 -104 88 -106 88 -394 87 l-254 -1 180 -39z
m-851 -655 c61 -119 154 -210 291 -286 75 -41 44 -34 -39 9 -122 65 -270 227
-301 331 -14 47 12 19 49 -54z m396 -329 c19 -7 28 -14 20 -14 -8 0 -28 6 -45
14 -39 17 -21 18 25 0z m645 -15 c-11 -5 -29 -8 -40 -8 -16 0 -15 2 5 8 34 11
60 11 35 0z m-555 -10 c20 -6 21 -8 5 -8 -11 0 -29 3 -40 8 -25 11 1 11 35 0z
m483 -7 c-7 -2 -19 -2 -25 0 -7 3 -2 5 12 5 14 0 19 -2 13 -5z m-50 -10 c-7
-2 -19 -2 -25 0 -7 3 -2 5 12 5 14 0 19 -2 13 -5z m-285 -10 c-10 -2 -26 -2
-35 0 -10 3 -2 5 17 5 19 0 27 -2 18 -5z m190 0 c-10 -2 -26 -2 -35 0 -10 3
-2 5 17 5 19 0 27 -2 18 -5z"/>
</g>
</svg>
